<svg width="22" height="22" viewBox="0 0 22 22" fill="none" xmlns="http://www.w3.org/2000/svg">
<path d="M9.61756 1.25146H7.70255C2.91501 1.25146 1 3.25146 1 8.25146V14.2515C1 19.2515 2.91501 21.2515 7.70255 21.2515H13.4476C18.2351 21.2515 20.1501 19.2515 20.1501 14.2515V12.2515" stroke="#D9D9D9" stroke-width="1.5" stroke-linecap="round" stroke-linejoin="round"/>
<path d="M14.4433 2.27123L6.89819 10.1512C6.61094 10.4512 6.32369 11.0412 6.26623 11.4712L5.85451 14.4812C5.70131 15.5712 6.43859 16.3312 7.48227 16.1812L10.3644 15.7512C10.7665 15.6912 11.3314 15.3912 11.6283 15.0912L19.1734 7.21123C20.4756 5.85123 21.0884 4.27123 19.1734 2.27123C17.2584 0.271229 15.7456 0.911229 14.4433 2.27123Z" stroke="#D9D9D9" stroke-width="1.5" stroke-miterlimit="10" stroke-linecap="round" stroke-linejoin="round"/>
<path d="M13.3615 3.40137C14.003 5.79137 15.7935 7.66137 18.0915 8.34137" stroke="#D9D9D9" stroke-width="1.5" stroke-miterlimit="10" stroke-linecap="round" stroke-linejoin="round"/>
</svg>
